<svg xmlns="http://www.w3.org/2000/svg" viewBox="0 0 190 115"><defs><style>.cls-1{fill:green;}.cls-2{font-size:17.55px;font-family:Tahoma, Tahoma;}.cls-2,.cls-3{fill:#fff;}.cls-3{font-size:28.4px;font-family:Tahoma-Bold, Tahoma;font-weight:700;}.cls-4{fill:#ff7bac;}.cls-5{fill:#f41021;}</style></defs><title>Asset 7</title><g id="Layer_2" data-name="Layer 2"><g id="Layer_1-2" data-name="Layer 1"><rect class="cls-1" width="190" height="115"/><text class="cls-2" transform="translate(74.05 41.72)">ĐẠI HỌC</text><text class="cls-3" transform="translate(74.05 79.6)">ĐÔNG Á</text><path class="cls-4" d="M26.38,23.26c1.83,1.25,10.61,6.51,21.45,0a.39.39,0,0,1,.57.19c1,2.69,5.24,17.33-11.29,30.36a.37.37,0,0,1-.47,0c-2.09-1.72-17.57-15.12-10.8-30.38A.36.36,0,0,1,26.38,23.26Z"/><path class="cls-4" d="M65.27,78.84c-2.22.08-12.4,1.07-17.25,12.75a.38.38,0,0,1-.57.18C45.08,90.2,32.93,81,38.5,60.64a.37.37,0,0,1,.38-.28c2.71.14,23.11,1.73,26.74,18A.36.36,0,0,1,65.27,78.84Z"/><path class="cls-4" d="M24.75,90.87c-.68-2.11-4.44-11.63-17-13.08a.38.38,0,0,1-.33-.49c.86-2.71,6.4-16.93,27.47-17.17a.37.37,0,0,1,.37.29c.61,2.64,4.7,22.7-10,30.66A.36.36,0,0,1,24.75,90.87Z"/><path class="cls-4" d="M1,56.27c1.77-1.33,9.56-8,6.85-20.33a.38.38,0,0,1,.36-.47C11,35.4,26.29,36,33.35,55.87a.37.37,0,0,1-.15.44C30.9,57.75,13.26,68.12,1,56.83A.36.36,0,0,1,1,56.27Z"/><path class="cls-4" d="M66.11,37c-.62,2.13-2.88,12.11,6.7,20.38a.38.38,0,0,1,0,.59C70.57,59.69,58,68.34,40.44,56.68a.37.37,0,0,1-.14-.44c1-2.52,8.89-21.41,25.5-19.73A.36.36,0,0,1,66.11,37Z"/><polygon class="cls-5" points="31.7 55.88 35.66 55.91 36.91 52.16 38.1 55.93 42.05 55.96 38.84 58.26 40.03 62.02 36.85 59.68 33.63 61.98 34.88 58.23 31.7 55.88"/></g></g></svg>